<svg id="easy-db-logo" xmlns="http://www.w3.org/2000/svg" width="185" height="210" viewBox="0 0 362.8 411.4">
  <path d="M107.6,471l-33-370.4H437.4l-33,370.2L255.7,512" transform="translate(-74.6 -100.6)" fill="#3c931b"/>
  <path d="M256,480.5V131H404.3L376,447" transform="translate(-74.6 -100.6)" fill="#55c12d"/>
  <path d="M142,176.3H256v45.4H191.8l2.69,29.786H148.658" transform="translate(-74.6 -100.6)" fill="#ebebeb"/>
  <path d="M150.449,268.2H256v45.3H154.4m2,22.8H202l3.2,36.3L256,386.2v47.4l-93.2-26" transform="translate(-74.6 -94.6)" fill="#ebebeb"/>
  <path d="M256.924,176.3H142v45.4h64.72l-2.712,29.786h46.2" transform="translate(39.4 -100.6)" fill="#fff"/>
  <path d="M256.924,268.2H150.449v45.3H252.938m-2.018,22.8h-46l-3.228,36.3-51.244,13.6v47.4l94.015-26" transform="translate(30.951 -94.6)" fill="#fff"/>
</svg>
